<?xml version="1.0" standalone="no"?>
<!DOCTYPE svg PUBLIC "-//W3C//DTD SVG 20010904//EN"
 "http://www.w3.org/TR/2001/REC-SVG-20010904/DTD/svg10.dtd">
<svg version="1.0" xmlns="http://www.w3.org/2000/svg"
 width="384.000000pt" height="384.000000pt" viewBox="0 0 384.000000 384.000000"
 preserveAspectRatio="xMidYMid meet">
<metadata>
Created by potrace 1.14, written by Peter Selinger 2001-2017
</metadata>
<g transform="translate(0.000000,384.000000) scale(0.100000,-0.100000)"
fill="#000000" stroke="none">
<path d="M1606 3200 c1 -173 2 -317 3 -320 1 -4 614 -5 631 -1 3 0 5 144 5
318 l0 318 -320 0 -320 0 1 -315z"/>
<path d="M325 1915 l0 -960 312 0 c171 0 315 -4 320 -8 4 -5 8 -147 9 -315 1
-169 2 -309 3 -312 0 -3 144 -5 318 -5 l318 0 0 320 0 320 320 0 320 0 1 -310
c1 -171 2 -315 3 -320 1 -7 113 -10 318 -10 l318 0 0 313 c0 199 -4 316 -10
320 -5 4 -146 7 -312 7 -166 0 -305 4 -310 8 -4 5 -8 293 -8 640 l0 632 -320
0 -320 0 0 -640 0 -640 -320 0 -320 0 0 958 c0 526 -2 958 -5 958 -3 1 -147 2
-320 3 l-315 1 0 -960z"/>
<path d="M2889 2875 c-1 0 -2 -432 -3 -960 l-1 -960 315 1 c173 1 317 2 320 3
3 0 5 432 5 959 l0 957 -317 0 c-175 0 -319 0 -319 0z"/>
</g>
</svg>
